# xmcd CD database file
#
# Track frame offsets:
#	150
#	21141
#	47048
#	65263
#	81971
#	102461
#	114832
#	133582
#
# Disc length: 2024 seconds
#
# Revision: 1
# Processed by: cddbd v1.5.2PL0 Copyright (c) Steve Scherf et al.
# Submitted via: CDex 1.50beta10
#
DISCID=6207e608
DTITLE=Paul Williams and Friends - In Memory of Robert Johnson
DYEAR=1972
DGENRE=Blues
TTITLE0=Terraplane Blues (Ver. 1)
TTITLE1=Crossroad Blues
TTITLE2=Kind Hearted Woman Blues
TTITLE3=If I Had Possession Over Judgement Day
TTITLE4=Rambling Blues
TTITLE5=When You Got a Good Friend
TTITLE6=Come On in My Kitchen
TTITLE7=Terraplane Blues (Ver. 2)
EXTD=YEAR: 1972
EXTT0=
EXTT1=
EXTT2=
EXTT3=
EXTT4=
EXTT5=
EXTT6=
EXTT7=
PLAYORDER=
